<svg xmlns="http://www.w3.org/2000/svg" width="152" height="121"><path fill="#FDBC5A" fill-rule="evenodd" d="M142.99 89.987c-4.966 0-9.009-4.031-9.009-8.985 0-4.955 4.043-8.986 9.009-8.986 4.968 0 9.008 4.031 9.008 8.986 0 4.954-4.04 8.985-9.008 8.985zm0-16.473c-4.145 0-7.507 3.352-7.507 7.488 0 4.134 3.362 7.487 7.507 7.487 4.146 0 7.507-3.353 7.507-7.487 0-4.136-3.361-7.488-7.507-7.488zm2.428 11.199h-.112c-.463 0-.708-.25-.708-.721v-3.637c0-1.197-.445-1.708-1.488-1.708-1.041 0-1.713.891-1.713 2.27v3.075c0 .478-.247.721-.737.721h-.098c-.485 0-.722-.236-.722-.721v-5.855c0-.472.249-.721.722-.721h.098c.481 0 .724.242.724.721v.084c.45-.515 1.148-.931 1.979-.931 1.767 0 2.778 1.101 2.778 3.023v3.679c0 .485-.236.721-.723.721zm-10.752-27.232c-.471 0-.824-.355-.942-.948v-5.217c0-.593.471-.949.942-.949.588 0 .943.474.943.949v5.217a.933.933 0 0 1-.943.948zm0-10.553c-.471 0-.824-.474-.942-.948V29.736c0-.593.471-.949.942-.949.588 0 .943.475.943.949V45.98a.933.933 0 0 1-.943.948zm-4.528-37.08a.89.89 0 0 1-.588-.237l-1.885-1.779a.937.937 0 0 1 0-1.304.92.92 0 0 1 1.296 0l1.766 1.778a.938.938 0 0 1 0 1.305.904.904 0 0 1-.589.237zm-1.177-6.047a.896.896 0 0 1-.589.237c-.235 0-.472-.118-.707-.237a.937.937 0 0 1 0-1.304l1.767-1.779a.919.919 0 0 1 1.295 0 .937.937 0 0 1 0 1.304l-1.766 1.779zm-1.416 81.267c0 2.024-1.697 3.734-3.708 3.734H18.721c-2.08 0-3.709-1.641-3.709-3.734V20.962c0-2.024 1.699-3.735 3.709-3.735h105.116c2.011 0 3.708 1.711 3.708 3.735v64.106zm-1.766-64.106c0-1.042-.908-1.957-1.942-1.957H18.721c-1.036 0-1.722.952-1.722 1.995v8.321h108.78v-8.359zm0 10.138H16.999V85c0 1.115.614 2.024 1.722 2.024h105.116c1.034 0 1.942-.914 1.942-1.956V31.1zm-13.363 29.686h-32.14c-.589 0-.943-.474-.943-.948V47.981c0-.593.472-.949.943-.949h32.14c.471 0 .943.356.943.948v11.858a.933.933 0 0 1-.943.948zm-.941-11.975H81.1v10.078h30.375V48.811zM97.32 43.002H80.276a.933.933 0 0 1-.943-.949c0-.593.472-.949.943-.949H97.32c.589 0 .942.475.942.949a.932.932 0 0 1-.942.949zM74.743 60.668H29.437a.932.932 0 0 1-.943-.949V47.862c0-.593.471-.948.943-.948h45.306c.588 0 .942.474.942.948v11.857a.932.932 0 0 1-.942.949zm-.942-11.857h-43.54v10.078h43.54V48.811zm-15.542-5.809H29.437a.932.932 0 0 1-.943-.949c0-.593.471-.949.943-.949h28.822c.588 0 .942.475.942.949a.932.932 0 0 1-.942.949zM30.726 69.988h3.501v-3.637c0-.491.395-.889.882-.889.488 0 .884.398.884.889v3.637h3.5c.486 0 .882.398.882.889a.886.886 0 0 1-.882.889h-3.5v3.637a.887.887 0 0 1-.884.889.886.886 0 0 1-.882-.889v-3.637h-3.501a.886.886 0 0 1-.882-.889c0-.491.395-.889.882-.889zm92.35-60.377a.904.904 0 0 1-.589.237c-.236 0-.471 0-.707-.237a.936.936 0 0 1 0-1.305l1.766-1.778a.917.917 0 0 1 1.294 0 .933.933 0 0 1 0 1.304l-1.764 1.779zm1.176-5.573a.894.894 0 0 1-.589-.237l-1.883-1.779a.935.935 0 0 1 0-1.304.92.92 0 0 1 1.296 0l1.764 1.779a.933.933 0 0 1 0 1.304.89.89 0 0 1-.588.237zm-78.229 4.83H31.78c-.588 0-.941-.474-.941-.949 0-.474.47-.83.941-.948h14.243c.587 0 .942.474.942.948a.932.932 0 0 1-.942.949zm-6.239-4.98h-3.178a.931.931 0 0 1-.941-.949c0-.592.47-.948.941-.948h3.178c.588 0 .942.356.942.948 0 .593-.47.949-.942.949zM22.482 6.971h4.59c.589 0 .942.474.942.948a.932.932 0 0 1-.942.949h-4.59c-.588 0-.943-.474-.943-.949 0-.474.471-.83.943-.948zm9.887-3.083h-9.887c-.472 0-.943-.356-.943-.83s.471-.949.943-1.067h9.887c.589 0 .941.356.941.948 0 .593-.47.949-.941.949zM8.303 29.973a.887.887 0 0 1-.588.237.891.891 0 0 1-.588-.237.935.935 0 0 1 0-1.304l1.765-1.778c.353-.356.942-.356 1.177 0a.935.935 0 0 1 0 1.304l-1.766 1.778zm0 2.727l1.65 1.779a.939.939 0 0 1 0 1.304.9.9 0 0 1-.589.237.89.89 0 0 1-.589-.237l-1.766-1.778a.936.936 0 0 1 0-1.305.92.92 0 0 1 1.294 0zm-.647 15.243v16.245a.932.932 0 0 1-.941.948c-.589 0-.943-.474-.943-.948V48.062c0-.593.472-.949.943-.949.47 0 .823.356.941.83zm-5.12-12.16a.894.894 0 0 1-.588.237.894.894 0 0 1-.589-.237.935.935 0 0 1 0-1.304L3.125 32.7c.235-.355.824-.355 1.177 0a.938.938 0 0 1 0 1.305l-1.766 1.778zm1.06-5.573a.894.894 0 0 1-.589-.237L1.24 28.195a.939.939 0 0 1 0-1.304.92.92 0 0 1 1.296 0l1.648 1.778a.935.935 0 0 1 0 1.304.894.894 0 0 1-.588.237zm3.119 38.483c.47 0 .823.356.941.949v5.217a.931.931 0 0 1-.941.948c-.589 0-.943-.474-.943-.948v-5.217c0-.593.472-.949.943-.949zm26.29 34.295c3.856 0 6.993 3.14 6.993 7.001 0 3.86-3.137 7-6.993 7-3.858 0-6.995-3.14-6.995-7 0-3.861 3.137-7.001 6.995-7.001zm0 12.835a5.83 5.83 0 0 0 5.828-5.834 5.83 5.83 0 0 0-5.828-5.834 5.831 5.831 0 0 0-5.829 5.834 5.831 5.831 0 0 0 5.829 5.834zm-1.885-8.627h.076c.372 0 .561.188.561.561v.066c.35-.401.891-.726 1.537-.726 1.372 0 2.156.858 2.156 2.355v2.867c0 .377-.183.562-.56.562h-.088c-.36 0-.55-.195-.55-.562v-2.834c0-.932-.346-1.331-1.155-1.331-.808 0-1.329.695-1.329 1.769v2.396c0 .372-.193.562-.572.562h-.076c-.378 0-.561-.185-.561-.562v-4.562c0-.367.193-.561.561-.561zm73.538-8.191a.894.894 0 0 1-.587-.237l-1.766-1.779a.933.933 0 0 1 0-1.304.919.919 0 0 1 1.295 0l1.646 1.779a.931.931 0 0 1 0 1.304.89.89 0 0 1-.588.237zm.588 3.913l-1.764 1.778a.896.896 0 0 1-.588.237.892.892 0 0 1-.589-.237.933.933 0 0 1 0-1.304l1.766-1.778c.352-.356.941-.356 1.175 0a.931.931 0 0 1 0 1.304zm4.121-1.304l1.648 1.778a.933.933 0 0 1 0 1.304.894.894 0 0 1-.589.237.896.896 0 0 1-.588-.237l-1.766-1.778a.935.935 0 0 1 0-1.304.919.919 0 0 1 1.295 0zm.59-5.929c.351-.356.823-.356 1.176 0a.937.937 0 0 1 0 1.304l-1.766 1.779a.899.899 0 0 1-.588.237.9.9 0 0 1-.589-.237.935.935 0 0 1 0-1.304l1.767-1.779zm-8.259 18.425h14.243c.588 0 .942.474.942.948s-.354.83-.942.949h-14.243c-.588 0-.941-.356-.941-.949a.93.93 0 0 1 .941-.948zm6.24 4.979h3.176c.472 0 .943.356.943.949a.932.932 0 0 1-.943.949h-3.176c-.589 0-.943-.475-.943-.949 0-.593.471-.949.943-.949zm17.301-3.082h-4.59c-.588 0-.942-.356-.942-.949s.471-.948.942-.948h4.59c.589 0 .942.355.942.948s-.47.949-.942.949zm-9.887 3.082h9.887c.589 0 .942.356.942.949s-.47.949-.942.949h-9.887c-.588 0-.942-.475-.942-.949 0-.593.471-.949.942-.949z"/></svg>
