<svg xmlns="http://www.w3.org/2000/svg" width="201" height="201">
    <path fill="#F2FAFE" fill-rule="evenodd" d="M100.489 200.997c-55.415 0-100.501-45.084-100.501-100.5S45.074-.003 100.489-.003c55.416 0 100.5 45.084 100.5 100.5s-45.084 100.5-100.5 100.5zm0-184.251c-46.251 0-83.75 37.498-83.75 83.751 0 46.254 37.499 83.751 83.75 83.751 46.252 0 83.75-37.497 83.75-83.751 0-46.253-37.498-83.751-83.75-83.751zm27.088 125.267h-1.254c-5.172 0-7.902-2.791-7.902-8.065V93.271c0-13.391-4.964-19.109-16.6-19.109-11.605 0-19.105 9.97-19.105 25.395v34.391c0 5.348-2.759 8.065-8.22 8.065h-1.095c-5.417 0-8.062-2.644-8.062-8.065v-65.49c0-5.274 2.788-8.06 8.062-8.06h1.095c5.353 0 8.068 2.709 8.068 8.06v.948c5.029-5.763 12.81-10.424 22.089-10.424 19.697 0 30.994 12.324 30.994 33.819v41.147c0 5.421-2.644 8.065-8.07 8.065z" opacity=".8"/>
</svg>
